<svg xmlns="http://www.w3.org/2000/svg" xml:space="preserve" viewBox="0 0 2000 456.5"><path d="M380.5 268.5c0 13.6-8 26-23.6 28.4-26.8 4.8-82.8 7.6-130 7.6s-103.2-2.8-130-7.6c-15.6-2.8-23.2-15.2-23.2-28.4v-89.2c0-13.6 10.4-26.4 23.2-28.4 8-1.6 26.4-2.8 40.8-2.8 5.6 0 9.6 4.4 10 10.8v62c27.6 0 51.6-1.6 79.6-1.6s51.6 1.6 79.6 1.6v-62c0-6.4 4.4-10.8 9.6-10.8 14.4 0 32.8 1.2 40.8 2.8 12.8 2.4 23.6 15.2 23.6 28.4zM226.4 0C101.6 0 0 102.4 0 228.4s101.6 228 226.4 228 226.4-102.4 226.4-228S352.1 0 226.4 0" class="st0" style="fill:currentColor"/><path d="M543.6 309.9c-70.4 0-105.6-51.2-105.6-108 0-56.4 36.8-107.2 106.4-107.2 26.8 0 46 5.6 61.6 16.4l-20 33.2c-11.2-7.2-24-12-42.4-12-38 0-58 30.4-58 68.4 0 38.8 19.2 71.6 58.8 71.6 22 0 35.6-7.6 46.4-16l18.4 32c-10.8 9.6-35.6 21.6-65.6 21.6M694 309.9c-52.4 0-75.6-40-75.6-79.6s22.8-80.4 75.2-80.4 76.4 39.6 76.4 79.2c0 38.8-23.2 80.8-76 80.8m-1.2-128c-22.8 0-29.6 19.2-29.6 47.2s8.8 48.4 31.2 48.4c22.8 0 30.4-18.8 30.4-47.2s-8.8-48.4-32-48.4M836.9 153.9v97.6c0 15.2 5.2 22.4 19.6 22.4 15.2 0 26.8-14.8 29.6-18.4V153.9h42.4v107.6c0 20 2.4 35.6 4.4 44.8h-41.6c-1.2-4.4-2.8-14-3.2-20-8 10.4-23.6 24-48.4 24-33.2 0-45.2-21.6-45.2-49.6V153.9zM1032.5 309.9c-48.8 0-78.4-32-78.4-80 0-51.2 33.6-80.4 80-80.4 24.4 0 38.8 7.2 46 12l-13.6 29.2c-6.4-4.4-16.4-8.8-31.2-8.8-23.6 0-36.4 18.4-36.4 46.4s12 48 37.2 48c16.8 0 27.6-6 32-8.8l12.8 28.4c-7.2 4.8-20.8 14-48.4 14M1194.5 306.3v-97.6c0-15.2-5.2-22.4-19.2-22.4-15.6 0-27.2 14.4-30 18.4v102h-42.4V81.1h42.4v90.8c7.6-8.4 22-22 46.8-22 33.2 0 45.2 21.2 45.2 49.6v106.4zM1314.1 81.1v84.4c6.8-6.8 20-16 36.8-16 37.6 0 63.6 26 63.6 78.8 0 52.4-34.8 81.2-80.4 81.2-34.4 0-55.2-8.4-62.4-12.4v-216zm0 192c2.8.8 9.2 3.2 20 3.2 22 0 35.2-16.4 35.2-47.6 0-28-9.2-44.8-30.8-44.8-12.8 0-22 8-24.8 11.2zM1519.8 306.3c-1.2-4-2.4-11.6-2.8-16.4-6.4 8-20.8 20-42 20-25.6 0-45.6-15.6-45.6-42.8 0-39.6 40-54 80.4-54h5.2v-8.8c0-12.8-5.2-20.4-24-20.4-19.2 0-32.4 10-38.4 14.4l-18-26.4c9.2-8 28.8-22 61.2-22 41.6 0 61.2 16.4 61.2 56.8v53.6c0 20.8 2.4 36 4.4 46zm-4.8-67.2h-5.2c-23.2 0-39.2 6.8-39.2 24.4 0 10.8 8.4 15.6 17.6 15.6 14.4 0 22.4-8 26.8-12.8zM1633.8 309.9c-27.2 0-44.4-8-53.6-14.4l14.4-30c5.6 4 20.4 12.4 37.2 12.4 15.6 0 24.4-4.4 24.4-13.2 0-10-16.8-12.8-38.4-23.2-20.8-10-32.8-22-32.8-44.8 0-28.8 22.4-47.2 56.8-47.2 26 0 41.6 8 48.8 12l-14.8 29.2c-5.6-4-17.6-9.6-32-9.6s-20.4 5.2-20.4 12.8c0 10 14 12.4 30.8 19.2 23.6 9.6 40.4 20.8 40.4 46.8-.8 33.2-23.6 50-60.8 50M1792.2 277.9c20.4 0 31.6-6.4 38.8-10.4l13.6 27.6c-10 5.6-25.6 14.8-56.4 14.8-50.4 0-79.2-32-79.2-80.8 0-48.4 33.2-79.2 74.8-79.2 47.6 0 70.4 33.2 65.2 90.4h-94c1.6 22.8 12.8 37.6 37.2 37.6m16-66.8c-.4-16.8-6.8-30.4-25.2-30.4-16.8 0-26.4 10.8-28.8 30.4z" class="st1" style="fill:currentColor" transform="translate(150.22 27.826)"/></svg>
