<svg xmlns="http://www.w3.org/2000/svg" xml:space="preserve" width="66" height="24" class="wordmark" viewBox="0 0 66 24"><path d="M0 17.198h3.045c.356 3.077 3.045 4.664 5.927 4.664 3.045 0 5.409-1.814 5.409-4.632 0-2.883-2.332-3.595-6.186-4.47C2.559 11.53.777 9.587.777 6.283.777 2.623 3.984 0 8.486 0c4.178 0 7.806 2.332 8.032 6.057h-3.012c-.227-2.462-2.429-3.919-5.15-3.919-2.947 0-4.761 1.879-4.761 3.951 0 2.462 2.073 3.206 6.121 4.049 5.441 1.134 7.514 3.271 7.514 6.931 0 4.243-3.498 6.931-8.356 6.931C4.081 24 .291 21.636 0 17.198M18.267 19.304c0-3.336 2.818-5.344 10.3-5.538v-.972c0-2.494-1.36-3.725-3.563-3.725-2.267 0-3.401 1.49-3.563 3.077h-2.785c.324-2.721 2.559-4.988 6.348-4.988 4.049 0 6.316 2.202 6.316 5.636v10.721h-2.623v-2.073C27.757 23.093 26.008 24 23.709 24c-2.915 0-5.442-1.717-5.442-4.696m10.3-1.458v-2.3c-5.538.162-7.547 1.458-7.547 3.66 0 1.684 1.36 2.883 3.271 2.883 2.43 0 4.276-1.652 4.276-4.243M33.684 7.676h2.656v2.332c.907-1.684 2.623-2.785 4.923-2.785 3.595 0 5.506 2.364 5.506 5.862v10.429h-2.85v-9.911c0-2.915-1.296-4.275-3.498-4.275s-3.887 1.879-3.887 4.308v9.879h-2.85zM48.389 19.304c0-3.336 2.818-5.344 10.3-5.538v-.972c0-2.494-1.36-3.725-3.563-3.725-2.267 0-3.401 1.49-3.563 3.077h-2.785c.324-2.721 2.559-4.988 6.348-4.988 4.049 0 6.316 2.202 6.316 5.636v10.721h-2.623v-2.073C57.879 23.093 56.13 24 53.83 24c-2.915 0-5.441-1.717-5.441-4.696m10.299-1.458v-2.3c-5.538.162-7.547 1.458-7.547 3.66 0 1.684 1.36 2.883 3.271 2.883 2.43 0 4.276-1.652 4.276-4.243M61.043 1.018h-1.017v3.014h-.602V1.018h-1.017v-.5h2.636zM63.251 3.263l.873-2.745h.917V4.03h-.596V1.137l-.908 2.893h-.581l-.928-2.889V4.03h-.587V.518h.933z" style="fill:currentColor"/></svg>