<svg xmlns="http://www.w3.org/2000/svg" viewBox="-50 -20 288.624 78.268"><g data-name="Calque 2"><g data-name="Groupe 1909" opacity=".35"><path fill="#0540ff" d="M68.234 103.2a4.226 4.226 0 0 1-3.767-6.125L73.8 78.55a4.226 4.226 0 0 1 7.548 3.8l-9.335 18.522a4.23 4.23 0 0 1-3.781 2.323Z" data-name="Tracé 10091" style="fill:currentColor" transform="translate(-54.53 -64.931)"/></g><g data-name="Groupe 1910" opacity=".35"><path fill="#0540ff" d="M1093.234 103.213a4.226 4.226 0 0 1-3.766-6.125l9.335-18.522a4.223 4.223 0 0 1 7.542 3.8l-9.335 18.522a4.23 4.23 0 0 1-3.776 2.325" data-name="Tracé 10092" style="fill:currentColor" transform="translate(-927.653 -64.946)"/></g><path fill="#0540ff" d="M140.7 103.184a4.22 4.22 0 0 1-3.759-2.3l-9.483-18.521a4.223 4.223 0 0 1 7.517-3.853l5.7 11.122 5.594-11.1a4.226 4.226 0 0 1 7.548 3.805l-9.335 18.522a4.22 4.22 0 0 1-3.758 2.322Z" data-name="Tracé 10093" style="fill:currentColor" transform="translate(-108.179 -64.918)"/><path fill="#0540ff" d="M13.708 103.2a4.22 4.22 0 0 1-3.762-2.3L.462 82.382a4.223 4.223 0 0 1 7.517-3.852l9.483 18.522a4.226 4.226 0 0 1-3.755 6.149Z" data-name="Tracé 10094" style="fill:currentColor" transform="translate(.003 -64.936)"/><path fill="#0540ff" d="M966.234 103.219a4.226 4.226 0 0 1-3.766-6.125l9.332-18.522a4.22 4.22 0 0 1 3.758-2.322h.013a4.22 4.22 0 0 1 3.758 2.3l9.483 18.522a4.223 4.223 0 0 1-7.517 3.852L975.6 89.8l-5.588 11.1a4.23 4.23 0 0 1-3.778 2.319" data-name="Tracé 10095" style="fill:currentColor" transform="translate(-819.471 -64.952)"/><path fill="#0540ff" d="M1165.708 103.2a4.22 4.22 0 0 1-3.762-2.3l-9.483-18.522a4.223 4.223 0 1 1 7.517-3.852l9.483 18.522a4.226 4.226 0 0 1-3.755 6.149Z" data-name="Tracé 10096" style="fill:currentColor" transform="translate(-981.302 -64.936)"/><path fill="#0540ff" d="m578.369 30.891-8.541-6.677 8.446-5.666a4 4 0 0 0-4.456-6.647l-11.737 7.869V4.186a4.186 4.186 0 1 0-8.372 0v29.783a4.186 4.186 0 0 0 8.372 0V28.32l11.36 8.871a4 4 0 1 0 4.927-6.3Z" data-name="Tracé 10097" style="fill:currentColor" transform="translate(-471.665)"/><path fill="#0540ff" d="M356.4 90.163a13.4 13.4 0 1 0-7 11.854 3.852 3.852 0 0 0 7-2.223zM343 96.09a5.853 5.853 0 1 1 5.853-5.853A5.853 5.853 0 0 1 343 96.09" data-name="Tracé 10098" style="fill:currentColor" transform="translate(-280.762 -65.455)"/><path fill="#0540ff" d="M782.4 90.163a13.4 13.4 0 1 0-7 11.854 3.853 3.853 0 0 0 7-2.223zM769 96.09a5.853 5.853 0 1 1 5.853-5.853A5.853 5.853 0 0 1 769 96.09" data-name="Tracé 10099" style="fill:currentColor" transform="translate(-643.64 -65.455)"/></g></svg>